<?xml version="1.0" encoding="UTF-8" standalone="no"?><!DOCTYPE svg PUBLIC "-//W3C//DTD SVG 1.1//EN" "http://www.w3.org/Graphics/SVG/1.1/DTD/svg11.dtd"><svg width="100%" height="100%" viewBox="0 0 1011 684" version="1.1" xmlns="http://www.w3.org/2000/svg" xmlns:xlink="http://www.w3.org/1999/xlink" xml:space="preserve" xmlns:serif="http://www.serif.com/" style="fill-rule:evenodd;clip-rule:evenodd;stroke-linejoin:round;stroke-miterlimit:2;"><rect id="Artboard1" x="0" y="0" width="1010.68" height="683.831" style="fill:none;"/><g><g><g transform="matrix(100.493,0,0,100.493,977.347,630.405)"></g><text x="785.606px" y="630.405px" style="font-family:'AdobeClean-BlackIt', 'Adobe Clean', sans-serif;font-weight:900;font-style:italic;font-size:100.493px;fill:#fdb921;">W<tspan x="870.824px 898.158px 949.309px " y="630.405px 630.405px 630.405px ">iFi</tspan></text><g><g><path d="M172.322,344.912c0.849,-1.763 1.881,-3.468 3.099,-5.091c63.994,-75.14 176.783,-84.176 251.924,-20.183c7.253,6.179 14.004,12.928 20.182,20.183c10.215,13.386 7.645,32.519 -5.741,42.733c-5.312,4.057 -11.813,6.252 -18.498,6.252c-9.444,0.021 -18.358,-4.352 -24.128,-11.83c-42.329,-46.935 -113.767,-52.004 -162.222,-12.518c-15.993,-11.69 -37.47,-18.895 -64.616,-19.546Z" style="fill:#cababa;"/><path d="M575.733,226.198c-9.122,0.009 -17.769,-4.066 -23.566,-11.108c-3.63,-4.381 -85.695,-100.686 -240.671,-100.686c-155.212,0 -237.309,96.549 -240.724,100.696c-10.687,13.016 -29.902,14.905 -42.919,4.217c-13.016,-10.687 -14.904,-29.902 -4.217,-42.918c4.116,-5.021 102.759,-122.973 287.86,-122.973c185.099,-0 283.73,117.952 287.838,122.973c10.662,13.031 8.744,32.24 -4.285,42.905c-5.451,4.459 -12.274,6.895 -19.316,6.894Z" style="fill:#cababa;"/><path d="M504.594,307.503c-9.081,0.016 -17.697,-4.024 -23.487,-11.017c-44.2,-46.149 -105.728,-71.646 -169.611,-70.288c-63.905,-1.369 -125.452,24.137 -169.654,70.308c-11.156,12.613 -30.424,13.794 -43.037,2.638c-12.011,-10.624 -13.741,-28.736 -3.956,-41.441c55.837,-60.148 134.584,-93.764 216.647,-92.484c82.061,-1.28 160.808,32.336 216.643,92.484c10.665,13.032 8.748,32.241 -4.282,42.905c-5.436,4.448 -12.242,6.883 -19.263,6.895Z" style="fill:#cababa;"/><path d="M269.797,415.456c10.905,-10.224 25.571,-16.484 41.699,-16.484c33.677,-0 60.977,27.3 60.977,60.977c0,33.676 -27.3,60.977 -60.977,60.977c-21.924,0 -41.144,-11.568 -51.891,-28.932c8.078,-13.867 12.892,-31.042 12.892,-51.932c-0,-8.491 -0.896,-16.742 -2.7,-24.606Z" style="fill:#cababa;"/></g><g><path d="M100.176,516.908c-0,1.895 0.71,2.606 1.895,2.606l47.628,0c40.282,0 86.015,-21.8 86.015,-78.906c-0,-40.993 -26.539,-74.877 -81.987,-74.877l-51.893,-0c-1.184,0.237 -1.658,0.711 -1.658,1.895l-0,149.282Zm41.467,-116.345l11.61,-0c26.065,-0 39.809,13.032 39.809,40.993c-0,31.041 -16.587,43.363 -41.941,43.363l-9.478,-0l-0,-84.356Z" style="fill:#fdb922;fill-rule:nonzero;"/><path d="M393.525,516.908c0,1.895 0.711,2.606 2.37,2.606l36.491,0c1.658,0 2.369,-0.711 2.369,-2.369l0,-80.091c4.502,-3.554 9.241,-5.45 14.691,-5.45c9.479,-0 14.455,5.924 14.455,16.35l-0,68.954c-0,1.895 0.947,2.606 2.843,2.606l36.017,0c1.896,0 2.607,-0.948 2.607,-2.606l-0,-69.665c-0,-37.913 -22.274,-48.813 -41.23,-48.813c-11.848,0 -22.748,3.318 -32.7,10.663c-0.474,-2.369 -0.948,-4.265 -1.896,-6.397c-0.711,-1.422 -1.422,-2.133 -4.028,-2.133l-31.278,-0c-1.422,-0 -1.896,0.948 -1.659,2.37c0.474,5.923 0.948,17.534 0.948,25.591l0,88.384Z" style="fill:#950000;fill-rule:nonzero;"/><path d="M588.539,521.884c17.06,-0 36.727,-3.792 53.314,-10.9c1.659,-0.711 1.896,-1.185 1.659,-2.607c-0.474,-5.45 -0.948,-14.217 -0.948,-21.089l0,-132.694c0,-0.948 -0.237,-1.422 -1.422,-1.422l-37.912,0c-1.185,0 -1.896,0.474 -1.896,1.659l0,43.599l-6.635,0c-46.206,0 -69.664,29.146 -69.664,62.319c-0,40.046 27.013,61.135 63.504,61.135Zm12.795,-32.7c-1.896,0.474 -4.502,0.948 -7.819,0.948c-15.639,-0 -25.828,-10.426 -25.828,-30.804c-0,-20.852 13.269,-29.383 26.538,-29.383c3.318,0 5.687,0.711 7.109,0.948l0,58.291Z" style="fill:#950000;fill-rule:nonzero;"/><path d="M725.498,398.43c-38.149,0 -62.793,26.302 -62.793,61.845c0,31.752 18.957,61.609 61.845,61.609c36.254,-0 61.845,-23.459 61.845,-62.556c0,-31.041 -19.904,-60.898 -60.897,-60.898Zm-1.185,31.752c13.744,0 20.378,12.085 20.378,30.093c0,19.668 -7.582,29.857 -19.43,29.857c-12.558,-0 -20.615,-11.374 -20.615,-30.567c0,-19.194 8.057,-29.383 19.667,-29.383Z" style="fill:#950000;fill-rule:nonzero;"/><path d="M806.3,487.525c-0,25.591 12.084,34.359 32.225,34.359c9.005,-0 15.876,-1.422 19.194,-3.081c1.658,-0.711 2.132,-0.948 2.132,-3.08l0,-24.407c0,-1.184 -0.474,-1.421 -1.421,-1.421c-1.659,-0 -3.792,0.237 -4.976,0.237c-3.792,-0 -5.924,-1.422 -5.924,-6.635l-0,-127.955c-0,-1.896 -0.711,-2.37 -2.607,-2.37l-36.017,0c-2.132,0 -2.606,0.711 -2.606,2.37l-0,131.983Z" style="fill:#950000;fill-rule:nonzero;"/><path d="M933.07,398.43c-38.149,0 -62.793,26.302 -62.793,61.845c0,31.752 18.957,61.609 61.845,61.609c36.254,-0 61.845,-23.459 61.845,-62.556c0,-31.041 -19.904,-60.898 -60.897,-60.898Zm-1.185,31.752c13.744,0 20.378,12.085 20.378,30.093c0,19.668 -7.582,29.857 -19.43,29.857c-12.558,-0 -20.615,-11.374 -20.615,-30.567c0,-19.194 8.057,-29.383 19.667,-29.383Z" style="fill:#950000;fill-rule:nonzero;"/></g></g></g></g></svg>